<svg width="25" height="26" viewBox="0 0 25 26" fill="none" xmlns="http://www.w3.org/2000/svg">
<path d="M12.5 0.226565C10.0277 0.226565 7.61096 0.959662 5.55535 2.33318C3.49973 3.7067 1.89758 5.65894 0.951481 7.94302C0.00538587 10.2271 -0.242115 12.7404 0.2402 15.1652C0.722515 17.59 1.91299 19.8172 3.66115 21.5654C5.4093 23.3135 7.63661 24.5041 10.0614 24.9864C12.4861 25.4687 14.9994 25.2212 17.2835 24.2751C19.5676 23.329 21.5198 21.7268 22.8933 19.6712C24.2668 17.6156 25 15.1988 25 12.7266C25.0009 11.0848 24.6782 9.45889 24.0504 7.9419C23.4225 6.4249 22.5018 5.04655 21.3409 3.88563C20.18 2.72471 18.8016 1.804 17.2846 1.17615C15.7676 0.5483 14.1418 0.225627 12.5 0.226565ZM12.5 23.4829C10.3726 23.4829 8.29298 22.852 6.52411 21.6701C4.75524 20.4882 3.37658 18.8083 2.56246 16.8428C1.74834 14.8774 1.5353 12.7146 1.95033 10.6281C2.36537 8.54157 3.38981 6.62498 4.89411 5.12068C6.39841 3.61638 8.31501 2.59193 10.4015 2.1769C12.4881 1.76186 14.6508 1.97488 16.6163 2.789C18.5817 3.60312 20.2616 4.98178 21.4435 6.75065C22.6255 8.51952 23.2563 10.5992 23.2563 12.7266C23.2531 15.5783 22.1188 18.3124 20.1023 20.3289C18.0858 22.3454 15.3518 23.4797 12.5 23.4829Z" fill="#06283D"/>
<path d="M12.5008 10.168C12.2696 10.168 12.0478 10.2598 11.8843 10.4233C11.7208 10.5868 11.6289 10.8086 11.6289 11.0398V18.1906C11.6289 18.4219 11.7208 18.6436 11.8843 18.8071C12.0478 18.9706 12.2696 19.0625 12.5008 19.0625C12.732 19.0625 12.9537 18.9706 13.1172 18.8071C13.2807 18.6436 13.3726 18.4219 13.3726 18.1906V11.0398C13.3726 10.8086 13.2807 10.5868 13.1172 10.4233C12.9537 10.2598 12.732 10.168 12.5008 10.168Z" fill="#06283D"/>
<path d="M12.5008 6.38965C12.2696 6.38965 12.0478 6.48149 11.8843 6.64499C11.7208 6.80849 11.6289 7.03024 11.6289 7.26147V8.30747C11.6289 8.53869 11.7208 8.76045 11.8843 8.92395C12.0478 9.08745 12.2696 9.17929 12.5008 9.17929C12.732 9.17929 12.9537 9.08745 13.1172 8.92395C13.2807 8.76045 13.3726 8.53869 13.3726 8.30747V7.26147C13.3726 7.03024 13.2807 6.80849 13.1172 6.64499C12.9537 6.48149 12.732 6.38965 12.5008 6.38965Z" fill="#06283D"/>
</svg>
