<svg id="Left_Icon" data-name="Left Icon" xmlns="http://www.w3.org/2000/svg" width="18.792" height="21.392" viewBox="0 0 18.792 21.392">
  <g id="_Icon_Color" data-name="↳ Icon Color" transform="translate(0)">
    <g id="Mask">
      <path id="Path" d="M6.7,0a.691.691,0,0,0-.741.627V3.144A2.087,2.087,0,0,1,3.718,5.035,2.087,2.087,0,0,1,1.482,3.144V.627A.691.691,0,0,0,.741,0,.691.691,0,0,0,0,.627V3.144A3.471,3.471,0,0,0,3.718,6.288,3.471,3.471,0,0,0,7.436,3.144V.627A.691.691,0,0,0,6.7,0Z" transform="translate(5.678 6.713)" fill="#3f305e"/>
      <path id="Shape" d="M16.144,21.392H2.648a2.876,2.876,0,0,1-1.912-.685A2.042,2.042,0,0,1,0,19.064L.717,3.958a.7.7,0,0,1,.74-.6H5.678V3.144A3.471,3.471,0,0,1,9.4,0a3.472,3.472,0,0,1,3.719,3.144v.212h4.221a.7.7,0,0,1,.74.6l.714,15.105a2.038,2.038,0,0,1-.733,1.644A2.881,2.881,0,0,1,16.144,21.392ZM2.17,4.609l-.686,14.5a.9.9,0,0,0,.32.724,1.271,1.271,0,0,0,.844.3h13.5a1.272,1.272,0,0,0,.845-.3.9.9,0,0,0,.32-.724l-.686-14.5H2.17ZM9.4,1.254a2.087,2.087,0,0,0-2.235,1.89v.212h4.471V3.144A2.088,2.088,0,0,0,9.4,1.254Z" fill="#3f305e"/>
    </g>
  </g>
</svg>
