<svg width="27" height="28" viewBox="0 0 27 28" fill="none" xmlns="http://www.w3.org/2000/svg">
<path d="M11.6277 19.9722C9.97053 19.519 8.53396 18.4802 7.5845 17.0484C6.63505 15.6166 6.23715 13.889 6.46459 12.1862C6.69204 10.4833 7.5294 8.92071 8.82135 7.78829C10.1133 6.65587 11.7721 6.03049 13.4901 6.02814C15.2081 6.0258 16.8686 6.64663 18.1637 7.77551C19.4587 8.9044 20.3004 10.4647 20.5325 12.1669C20.7646 13.8692 20.3714 15.5978 19.4258 17.0322C18.4803 18.4666 17.0466 19.5094 15.3907 19.967" stroke="#06283D" stroke-width="1.5" stroke-linecap="round" stroke-linejoin="round"/>
<path d="M8.55469 18.2021C9.24114 18.8635 9.78695 19.6566 10.1594 20.534C10.5318 21.4114 10.7232 22.355 10.722 23.3082" stroke="#06283D" stroke-width="1.5" stroke-linecap="round" stroke-linejoin="round"/>
<path d="M18.4439 18.2021C17.7577 18.8636 17.2121 19.6568 16.8398 20.5342C16.4675 21.4115 16.2762 22.3551 16.2773 23.3082" stroke="#06283D" stroke-width="1.5" stroke-linecap="round" stroke-linejoin="round"/>
<path d="M16.2805 23.3096V24.6599C16.2805 25.1081 16.1025 25.5379 15.7856 25.8548C15.4687 26.1716 15.0389 26.3497 14.5907 26.3497H12.4124C11.9643 26.3497 11.5345 26.1716 11.2176 25.8548C10.9007 25.5379 10.7227 25.1081 10.7227 24.6599V23.3096" stroke="#06283D" stroke-width="1.5" stroke-linecap="round" stroke-linejoin="round"/>
<path d="M8.85156 12.9978C8.85147 12.3927 8.97059 11.7936 9.20209 11.2346C9.43358 10.6756 9.77295 10.1676 10.2008 9.7398C10.6286 9.31197 11.1366 8.97264 11.6956 8.74115C12.2546 8.50965 12.8537 8.39053 13.4588 8.39063" stroke="#06283D" stroke-width="1.5" stroke-linecap="round" stroke-linejoin="round"/>
<path d="M12.4238 23.7754H14.4927" stroke="#06283D" stroke-width="1.5" stroke-linecap="round" stroke-linejoin="round"/>
<path d="M12.9199 0.749023V3.39018" stroke="#06283D" stroke-width="1.5" stroke-linecap="round" stroke-linejoin="round"/>
<path d="M26.0005 13.8281H23.3594" stroke="#06283D" stroke-width="1.5" stroke-linecap="round" stroke-linejoin="round"/>
<path d="M3.64116 13.8283H1" stroke="#06283D" stroke-width="1.5" stroke-linecap="round" stroke-linejoin="round"/>
<path d="M21.9468 4.80078L20.2578 6.4898" stroke="#06283D" stroke-width="1.5" stroke-linecap="round" stroke-linejoin="round"/>
<path d="M6.35699 6.4898L4.66797 4.80078" stroke="#06283D" stroke-width="1.5" stroke-linecap="round" stroke-linejoin="round"/>
</svg>
