<svg xmlns="http://www.w3.org/2000/svg" width="39" height="39" viewBox="0 0 39 39">
  <g id="_Icon_Color" data-name="↳ Icon Color" transform="translate(-0.131 -0.044)">
    <g id="Mask" transform="translate(0.131 0.362)">
      <path id="Shape" d="M29.29,39H9.71a4.743,4.743,0,0,1-4.6-4.024L3.185,20.518A4.2,4.2,0,0,1,4.2,12.238H5.5L9.5,2.594a4.2,4.2,0,1,1,7.766,3.217L14.6,12.238h9.8L21.738,5.811A4.2,4.2,0,1,1,29.5,2.594L33.5,12.238h1.3a4.2,4.2,0,0,1,1.018,8.278L33.886,34.976A4.743,4.743,0,0,1,29.29,39ZM5.507,20.643,7.379,34.674A2.449,2.449,0,0,0,9.71,36.715H29.29a2.453,2.453,0,0,0,2.332-2.041l1.871-14.031H5.507Zm-1.3-6.12a1.917,1.917,0,0,0,0,3.835H34.8a1.917,1.917,0,1,0,0-3.835H4.2Zm9.18-12.237a1.915,1.915,0,0,0-1.774,1.183l-3.631,8.77h4.149l3.025-7.3a1.921,1.921,0,0,0-1.039-2.5A1.9,1.9,0,0,0,13.383,2.286Zm12.234,0a1.914,1.914,0,0,0-1.767,2.65l3.024,7.3h4.149l-3.631-8.77A1.915,1.915,0,0,0,25.617,2.285Z" transform="translate(0 -0.319)" fill="#fff"/>
    </g>
  </g>
</svg>
