<svg xmlns="http://www.w3.org/2000/svg" width="150" height="150" viewBox="0 0 150 150">
  <g id="Group_12309" data-name="Group 12309" transform="translate(-108 -232)">
    <g id="Group_12290" data-name="Group 12290" transform="translate(108 232)">
      <circle id="Ellipse_1204" data-name="Ellipse 1204" cx="75" cy="75" r="75" fill="#f0f4f8"/>
      <circle id="Ellipse_1205" data-name="Ellipse 1205" cx="4.061" cy="4.061" r="4.061" transform="translate(119.135 48.271)" fill="#fff"/>
      <circle id="Ellipse_1206" data-name="Ellipse 1206" cx="5.609" cy="5.609" r="5.609" transform="translate(127.257 35.507)" fill="#fff"/>
      <circle id="Ellipse_1207" data-name="Ellipse 1207" cx="1.547" cy="1.547" r="1.547" transform="translate(117.587 37.054)" fill="#fff"/>
    </g>
    <g id="Group_12346" data-name="Group 12346" transform="translate(81.066 279.919) rotate(-8)">
      <g id="Group_12347" data-name="Group 12347" transform="translate(70.225 32.152)">
        <g id="Group_12346-2" data-name="Group 12346" transform="translate(0)">
          <path id="Path_19617" data-name="Path 19617" d="M72.178,212.488V254.16a3.655,3.655,0,0,0,3.655,3.655h36.924A6,6,0,0,0,117,256.057l13.334-12.42a6,6,0,0,0,1.758-4.245v-26.9l-7.226,3.142a2.177,2.177,0,0,1-2.411-.065l-8.381-5.384a2.178,2.178,0,0,0-2.632.095l-5.839,4.774a2.178,2.178,0,0,1-1.921.423L93.432,211.73a2.177,2.177,0,0,0-1.619.216l-7.377,4.732a2.178,2.178,0,0,1-1.94.106Z" transform="translate(-72.178 -209.784)" fill="#fff"/>
        </g>
      </g>
      <g id="Group_12351" data-name="Group 12351" transform="translate(70.225 -0.815)">
        <g id="Group_12350" data-name="Group 12350" transform="translate(0)">
          <path id="Path_19619" data-name="Path 19619" d="M132.094,35.71V11.155A3.655,3.655,0,0,0,128.439,7.5H75.833a3.655,3.655,0,0,0-3.655,3.655V35.71L81.09,41.08a3.414,3.414,0,0,0,3.728-.134l5.9-4.162a3.414,3.414,0,0,1,3.251-.373l8.529,3.464a3.414,3.414,0,0,0,3.323-.425l5.329-3.968a3.414,3.414,0,0,1,3.867-.145l6.579,4.173a3.414,3.414,0,0,0,3.489.1Z" transform="translate(-72.178 -7.5)" fill="#fff"/>
        </g>
      </g>
      <g id="Group_12355" data-name="Group 12355" transform="translate(108.099 65.417)">
        <g id="Group_12354" data-name="Group 12354" transform="translate(0)">
          <path id="Path_19621" data-name="Path 19621" d="M348,401.4H334.95a3.834,3.834,0,0,0-3.835,3.835v12.279" transform="translate(-331.115 -401.399)" fill="#b3874b"/>
        </g>
      </g>
      <g id="Group_12356" data-name="Group 12356" transform="translate(64.677)">
        <path id="Path_19622" data-name="Path 19622" d="M125.816,15.469a1.222,1.222,0,0,0,1.222-1.222V4.877A4.883,4.883,0,0,0,122.162,0H69.555a4.882,4.882,0,0,0-4.877,4.877V29.433a1.222,1.222,0,0,0,.592,1.047l8.912,5.369a4.638,4.638,0,0,0,5.064-.182l5.9-4.162a2.182,2.182,0,0,1,2.087-.239l8.529,3.464a4.662,4.662,0,0,0,4.513-.577l5.328-3.968a2.2,2.2,0,0,1,2.482-.093l6.579,4.173a4.633,4.633,0,0,0,4.739.135l7-3.9a1.222,1.222,0,0,0,.628-1.068v-10.3a1.222,1.222,0,1,0-2.445,0v9.579l-6.377,3.552a2.189,2.189,0,0,1-2.24-.064L109.4,28.028a4.662,4.662,0,0,0-5.252.2l-5.328,3.968a2.2,2.2,0,0,1-2.134.273L88.156,29a4.617,4.617,0,0,0-4.415.506l-5.9,4.162a2.192,2.192,0,0,1-2.393.086l-8.321-5.013V4.877a2.435,2.435,0,0,1,2.433-2.432h52.607a2.435,2.435,0,0,1,2.432,2.432v9.369a1.222,1.222,0,0,0,1.222,1.222Z" transform="translate(-64.678)" fill="#0c284c"/>
        <path id="Path_19623" data-name="Path 19623" d="M126.486,205.2a1.223,1.223,0,0,0-1.158-.1l-7.226,3.142a1.215,1.215,0,0,0-.162.085.953.953,0,0,1-1.058-.028l-.043-.029-8.361-5.372a3.411,3.411,0,0,0-4.086.164l-5.839,4.774a.96.96,0,0,1-.8.2l-10.185-3.718c-.037-.014-.076-.026-.115-.036a3.382,3.382,0,0,0-2.528.337l-.056.034-7.344,4.711a.961.961,0,0,1-.829.034l-.015-.006-10.317-4.3a1.222,1.222,0,0,0-1.692,1.128v16.1a1.222,1.222,0,0,0,2.445,0V208.058l8.618,3.588a3.417,3.417,0,0,0,3.021-.169l.056-.034,7.344-4.711a.948.948,0,0,1,.641-.093l10.185,3.718c.037.014.076.026.115.036a3.412,3.412,0,0,0,3-.661l5.839-4.774a.958.958,0,0,1,1.155-.042l.043.029,8.361,5.372a3.392,3.392,0,0,0,3.653.137l5.441-2.366v25.038c0,.134-.007.267-.018.4H111.934a5.062,5.062,0,0,0-5.057,5.057v11.728c-.132.011-.265.018-.4.018H69.554a2.435,2.435,0,0,1-2.432-2.432v-20.68a1.222,1.222,0,1,0-2.445,0V247.9a4.883,4.883,0,0,0,4.877,4.877h36.924a7.178,7.178,0,0,0,5.093-2.1l13.319-12.406.031-.03a7.178,7.178,0,0,0,2.116-5.109v-26.9a1.223,1.223,0,0,0-.552-1.022Zm-16.6,43.7-.031.03a4.825,4.825,0,0,1-.537.464v-10.81a2.615,2.615,0,0,1,2.612-2.612h11.723a4.852,4.852,0,0,1-.449.523Z" transform="translate(-64.677 -169.331)" fill="#0c284c"/>
        <path id="Path_19624" data-name="Path 19624" d="M152.505,78.278h8.367a1.222,1.222,0,0,0,0-2.445h-8.367a1.222,1.222,0,0,0,0,2.445Z" transform="translate(-137.169 -63.474)" fill="#0c284c"/>
        <path id="Path_19625" data-name="Path 19625" d="M152.505,117.093h31.568a1.222,1.222,0,1,0,0-2.445H152.505a1.222,1.222,0,0,0,0,2.445Z" transform="translate(-137.169 -95.963)" fill="#0c284c"/>
        <path id="Path_19626" data-name="Path 19626" d="M153.239,308.48h31.448a1.222,1.222,0,1,0,0-2.445H153.239a1.222,1.222,0,1,0,0,2.445Z" transform="translate(-137.783 -256.16)" fill="#0c284c"/>
        <path id="Path_19627" data-name="Path 19627" d="M153.239,348.594h31.448a1.222,1.222,0,1,0,0-2.445H153.239a1.222,1.222,0,1,0,0,2.445Z" transform="translate(-137.783 -289.736)" fill="#0c284c"/>
        <path id="Path_19628" data-name="Path 19628" d="M153.239,388.707h22.425a1.222,1.222,0,1,0,0-2.445H153.239a1.222,1.222,0,0,0,0,2.445Z" transform="translate(-137.783 -323.312)" fill="#0c284c"/>
      </g>
    </g>
  </g>
</svg>
