<svg xmlns="http://www.w3.org/2000/svg" width="150" height="150" viewBox="0 0 150 150">
  <g id="Group_12360" data-name="Group 12360" transform="translate(-113 -241)">
    <g id="Group_12333" data-name="Group 12333">
      <g id="Group_12332" data-name="Group 12332" transform="translate(113 241)">
        <path id="Path_19634" data-name="Path 19634" d="M75,0A75,75,0,1,1,0,75,75,75,0,0,1,75,0Z" fill="#AF7AB3"/>
        <circle id="Ellipse_1205" data-name="Ellipse 1205" cx="4.049" cy="4.049" r="4.049" transform="translate(118.766 48.586)" fill="#fff"/>
        <circle id="Ellipse_1206" data-name="Ellipse 1206" cx="5.591" cy="5.591" r="5.591" transform="translate(126.864 35.861)" fill="#fff"/>
        <circle id="Ellipse_1207" data-name="Ellipse 1207" cx="1.542" cy="1.542" r="1.542" transform="translate(117.224 37.404)" fill="#fff"/>
      </g>
    </g>
    <g id="Group_12344" data-name="Group 12344" transform="translate(149.85 279)">
      <path id="Path_19601" data-name="Path 19601" d="M104.207,132.245h0A5.249,5.249,0,0,1,98.958,127V113.819A18.427,18.427,0,0,0,80.531,95.392h0A18.427,18.427,0,0,0,62.1,113.819V127a5.249,5.249,0,0,1-5.249,5.249h0a3.564,3.564,0,0,0-3.564,3.564v.724a3.564,3.564,0,0,0,3.564,3.564h47.352a3.564,3.564,0,0,0,3.564-3.564v-.724A3.564,3.564,0,0,0,104.207,132.245Z" transform="translate(-39.256 -78.388)" fill="#fff"/>
      <g id="Group_12344-2" data-name="Group 12344" transform="translate(1.15)">
        <path id="Path_19602" data-name="Path 19602" d="M98.053,51.885a3.941,3.941,0,0,1-3.936-3.936V33.725A21.657,21.657,0,0,0,78.345,12.91a7.783,7.783,0,1,0-11.695,0A21.657,21.657,0,0,0,50.879,33.725V47.948a3.941,3.941,0,0,1-3.936,3.936,5.582,5.582,0,0,0-5.576,5.576v.782a5.582,5.582,0,0,0,5.576,5.576H63.85v1.8a8.648,8.648,0,0,0,17.3,0v-1.8H98.053a5.582,5.582,0,0,0,5.576-5.576V57.46A5.582,5.582,0,0,0,98.053,51.885ZM68.174,7.783A4.324,4.324,0,1,1,72.5,12.106,4.329,4.329,0,0,1,68.174,7.783Zm9.512,57.831a5.188,5.188,0,0,1-10.377,0v-1.8H77.686v1.8Zm22.483-7.371a2.119,2.119,0,0,1-2.117,2.117H46.943a2.119,2.119,0,0,1-2.117-2.117V57.46a2.119,2.119,0,0,1,2.117-2.117,7.4,7.4,0,0,0,7.4-7.4V33.725a18.16,18.16,0,1,1,36.319,0V47.948a7.442,7.442,0,0,0,.071,1.015H81.682a1.729,1.729,0,0,0,0,3.459H92.17a7.387,7.387,0,0,0,5.883,2.921,2.119,2.119,0,0,1,2.117,2.117v.782Z" transform="translate(-35.534)" fill="#0c284c"/>
        <path id="Path_19603" data-name="Path 19603" d="M255.045,337.581h-.173a1.729,1.729,0,1,0,0,3.459h.173a1.729,1.729,0,1,0,0-3.459Z" transform="translate(-216.593 -288.618)" fill="#0c284c"/>
        <path id="Path_19604" data-name="Path 19604" d="M433.624,73.7a37.341,37.341,0,0,0-10.11-21.574,1.73,1.73,0,1,0-2.5,2.393,33.865,33.865,0,0,1,9.17,19.564,1.73,1.73,0,1,0,3.438-.383Z" transform="translate(-359.707 -44.111)" fill="#b3874b"/>
        <path id="Path_19605" data-name="Path 19605" d="M393.863,103.057a1.729,1.729,0,1,0,3.438-.383,30.386,30.386,0,0,0-8.23-17.554,1.729,1.729,0,1,0-2.5,2.393A26.91,26.91,0,0,1,393.863,103.057Z" transform="translate(-330.26 -72.319)" fill="#b3874b"/>
        <path id="Path_19606" data-name="Path 19606" d="M13.716,52.074a1.73,1.73,0,0,0-2.445.053A37.344,37.344,0,0,0,1.16,73.7a1.729,1.729,0,1,0,3.438.383,33.865,33.865,0,0,1,9.17-19.564A1.729,1.729,0,0,0,13.716,52.074Z" transform="translate(-1.15 -44.11)" fill="#b3874b"/>
        <path id="Path_19607" data-name="Path 19607" d="M50.093,104.584A1.727,1.727,0,0,0,52,103.056a26.909,26.909,0,0,1,7.291-15.544,1.73,1.73,0,0,0-2.5-2.393,30.385,30.385,0,0,0-8.23,17.554A1.73,1.73,0,0,0,50.093,104.584Z" transform="translate(-41.679 -72.318)" fill="#b3874b"/>
      </g>
    </g>
  </g>
</svg>
