<svg xmlns="http://www.w3.org/2000/svg" width="315" height="315" viewBox="0 0 315 315">
  <g id="graphic-confirmation" transform="translate(569.239 -287.772)">
    <circle id="Ellipse_495" data-name="Ellipse 495" cx="157.5" cy="157.5" r="157.5" transform="translate(-569.239 287.772)" fill="#ebcf80" opacity="0.099"/>
    <g id="Group_1544" data-name="Group 1544">
      <line id="Line_315" data-name="Line 315" y2="10.409" transform="translate(-372.35 550.57)" fill="none" stroke="#7bed8d" stroke-linecap="round" stroke-linejoin="round" stroke-width="4"/>
      <line id="Line_316" data-name="Line 316" x1="10.409" transform="translate(-377.554 555.774)" fill="none" stroke="#7bed8d" stroke-linecap="round" stroke-linejoin="round" stroke-width="4"/>
    </g>
    <g id="Group_1545" data-name="Group 1545">
      <line id="Line_317" data-name="Line 317" y2="10.409" transform="translate(-488.37 344.546)" fill="none" stroke="#7bed8d" stroke-linecap="round" stroke-linejoin="round" stroke-width="4"/>
      <line id="Line_318" data-name="Line 318" x1="10.409" transform="translate(-493.575 349.751)" fill="none" stroke="#7bed8d" stroke-linecap="round" stroke-linejoin="round" stroke-width="4"/>
    </g>
    <circle id="Ellipse_496" data-name="Ellipse 496" cx="6.169" cy="6.169" r="6.169" transform="translate(-309.245 460.809)" fill="none" stroke="#7bed8d" stroke-linecap="round" stroke-linejoin="round" stroke-width="4"/>
    <circle id="Ellipse_497" data-name="Ellipse 497" cx="6.169" cy="6.169" r="6.169" transform="translate(-402.313 338.377)" fill="none" stroke="#7bed8d" stroke-linecap="round" stroke-linejoin="round" stroke-width="4"/>
    <circle id="Ellipse_498" data-name="Ellipse 498" cx="6.169" cy="6.169" r="6.169" transform="translate(-516.132 466.256)" fill="none" stroke="#7bed8d" stroke-linecap="round" stroke-linejoin="round" stroke-width="4"/>
    <path id="Path_950" data-name="Path 950" d="M-411.739,534.122l-65.483-28.012V410.727l65.483,28.012Z" fill="#acffb2" stroke="#7bed8d" stroke-linecap="round" stroke-linejoin="round" stroke-width="4"/>
    <path id="Path_951" data-name="Path 951" d="M-346.256,506.111l-65.483,28.012V438.739l65.483-28.012Z" fill="#dfffca" stroke="#7bed8d" stroke-linecap="round" stroke-linejoin="round" stroke-width="4"/>
    <path id="Path_952" data-name="Path 952" d="M-346.256,410.727l-65.483-28.012-65.483,28.012,65.483,28.012Z" fill="#7bed8d" stroke="#7bed8d" stroke-linecap="round" stroke-linejoin="round" stroke-width="4"/>
    <path id="Path_953" data-name="Path 953" d="M-411.739,438.739l-37.01,15.807-65.483-28.012,37.01-15.807Z" fill="#dfffca" stroke="#7bed8d" stroke-linecap="round" stroke-linejoin="round" stroke-width="4"/>
    <path id="Path_954" data-name="Path 954" d="M-411.739,438.739l37.01,15.807,65.483-28.012-37.01-15.807Z" fill="#dfffca" stroke="#7bed8d" stroke-linecap="round" stroke-linejoin="round" stroke-width="4"/>
    <path id="Path_955" data-name="Path 955" d="M-509.963,396.721l32.741,14.006,65.483-28.012L-444.48,368.71Z" fill="#dfffca" stroke="#7bed8d" stroke-linecap="round" stroke-linejoin="round" stroke-width="4"/>
    <path id="Path_956" data-name="Path 956" d="M-313.515,396.721l-32.741,14.006-65.483-28.012L-379,368.71Z" fill="#dfffca" stroke="#7bed8d" stroke-linecap="round" stroke-linejoin="round" stroke-width="4"/>
    <g id="Group_1546" data-name="Group 1546">
      <circle id="Ellipse_499" data-name="Ellipse 499" cx="23.585" cy="23.585" r="23.585" transform="translate(-435.324 373.547)" fill="#f2fff1" stroke="#7bed8d" stroke-linecap="round" stroke-linejoin="round" stroke-width="4"/>
      <path id="Path_957" data-name="Path 957" d="M-421.181,399.29l5.615,5.615,13.251-13.251" fill="none" stroke="#7bed8d" stroke-linecap="round" stroke-linejoin="round" stroke-width="4"/>
    </g>
    <line id="Line_319" data-name="Line 319" x1="23.712" y2="10.143" transform="translate(-401.266 500.845)" fill="none" stroke="#7bed8d" stroke-linecap="round" stroke-linejoin="round" stroke-width="4"/>
    <line id="Line_320" data-name="Line 320" x1="16.214" y2="6.936" transform="translate(-401.266 511.557)" fill="none" stroke="#7bed8d" stroke-linecap="round" stroke-linejoin="round" stroke-width="4"/>
  </g>
</svg>
