<svg width="27" height="21" viewBox="0 0 27 21" fill="none" xmlns="http://www.w3.org/2000/svg">
<path d="M8.14258 1H23.9342C24.482 1 25.0074 1.21761 25.3948 1.60496C25.7821 1.99232 25.9997 2.51768 25.9997 3.06548V6.07738C25.9997 6.34862 25.9463 6.61721 25.8425 6.8678C25.7387 7.1184 25.5866 7.34609 25.3948 7.53789C25.203 7.72969 24.9753 7.88183 24.7247 7.98563C24.4741 8.08943 24.2055 8.14286 23.9342 8.14286H8.14258V1Z" stroke="#06283D" stroke-width="1.5" stroke-linecap="round" stroke-linejoin="round"/>
<path d="M8.14258 12.9043H23.9342C24.482 12.9043 25.0074 13.1219 25.3948 13.5093C25.7821 13.8966 25.9997 14.422 25.9997 14.9698V17.9817C25.9997 18.2529 25.9463 18.5215 25.8425 18.7721C25.7387 19.0227 25.5866 19.2504 25.3948 19.4422C25.203 19.634 24.9753 19.7861 24.7247 19.8899C24.4741 19.9937 24.2055 20.0472 23.9342 20.0472H8.14258V12.9043Z" stroke="#06283D" stroke-width="1.5" stroke-linecap="round" stroke-linejoin="round"/>
<path d="M7.79761 7.79373H3.2143C2.63667 7.80264 2.07908 7.58207 1.66394 7.18032C1.2488 6.77858 1.01002 6.2285 1 5.65088V3.15091C1.01002 2.5733 1.2488 2.02322 1.66394 1.62148C2.07908 1.21973 2.63667 0.999156 3.2143 1.00807H7.79761V7.79373Z" stroke="#06283D" stroke-width="1.5" stroke-linecap="round" stroke-linejoin="round"/>
<path d="M7.79761 20.0222H3.2143C2.63667 20.0312 2.07908 19.8106 1.66394 19.4088C1.2488 19.0071 1.01002 18.457 1 17.8794V15.3794C1.01002 14.8018 1.2488 14.2517 1.66394 13.85C2.07908 13.4482 2.63667 13.2277 3.2143 13.2366H7.79761V20.0222Z" stroke="#06283D" stroke-width="1.5" stroke-linecap="round" stroke-linejoin="round"/>
</svg>
