<svg width="25" height="26" viewBox="0 0 25 26" fill="none" xmlns="http://www.w3.org/2000/svg">
<path d="M12.5 0.114258C10.0277 0.114258 7.611 0.847355 5.55539 2.22087C3.49977 3.59439 1.89761 5.54664 0.951511 7.83072C0.0054156 10.1148 -0.242126 12.6281 0.24019 15.0529C0.722505 17.4777 1.913 19.7049 3.66116 21.4531C5.40932 23.2013 7.63663 24.3918 10.0614 24.8741C12.4862 25.3564 14.9995 25.1088 17.2836 24.1627C19.5676 23.2167 21.5199 21.6145 22.8934 19.5589C24.2669 17.5033 25 15.0865 25 12.6142C24.9963 9.30019 23.6781 6.12295 21.3347 3.77955C18.9913 1.43616 15.8141 0.117997 12.5 0.114258ZM21.3508 6.21288C20.0077 6.75171 18.6179 7.16556 17.1989 7.44916C16.5838 5.42258 15.6096 3.52301 14.3227 1.841C17.1473 2.32224 19.6706 3.89188 21.3508 6.21288ZM16.0373 16.0213C13.6894 15.6994 11.3086 15.6994 8.96078 16.0213C8.48004 13.7795 8.48004 11.4612 8.96078 9.2193C11.3079 9.57966 13.6962 9.57966 16.0433 9.2193C16.524 11.4612 16.524 13.7795 16.0433 16.0213H16.0373ZM15.6336 7.69136C13.5532 7.96013 11.4469 7.96013 9.36645 7.69136C10.0251 5.63268 11.0911 3.72754 12.5011 2.08927C13.9089 3.72803 14.9728 5.63315 15.6296 7.69136H15.6336ZM10.6754 1.83799C9.3885 3.51987 8.41459 5.41949 7.80017 7.44614C6.38152 7.16237 4.99206 6.74853 3.64933 6.20986C5.32827 3.88896 7.8516 2.31925 10.6754 1.83799ZM1.56224 12.6122C1.56314 10.8543 1.99049 9.12275 2.80761 7.56622C4.29323 8.18328 5.83466 8.6564 7.41063 8.9791C6.90839 11.3813 6.90839 13.8614 7.41063 16.2636C5.83388 16.583 4.29172 17.0541 2.80564 17.6704C1.98804 16.1108 1.56071 14.3762 1.56027 12.6153L1.56224 12.6122ZM3.64933 19.0136C4.99205 18.4749 6.38152 18.0611 7.80017 17.7774C8.4151 19.804 9.38931 21.7036 10.6764 23.3855C7.85185 22.9047 5.32875 21.335 3.64933 19.0136ZM9.36645 17.5351C11.4465 17.2662 13.5525 17.2662 15.6326 17.5351C14.9752 19.5931 13.9113 21.4981 12.5041 23.1372C11.0962 21.4985 10.0322 19.5934 9.37551 17.5351H9.36645ZM14.3216 23.3885C15.6085 21.7065 16.5828 19.807 17.1979 17.7804C18.6167 18.0649 20.0064 18.4787 21.3498 19.0167C19.6696 21.3377 17.1462 22.9073 14.3216 23.3885ZM17.5864 16.2615C18.0896 13.8598 18.0896 11.3798 17.5864 8.97809C19.1633 8.65627 20.7054 8.18313 22.1914 7.56521C23.0095 9.12355 23.4369 10.8573 23.4369 12.6173C23.4369 14.3773 23.0095 16.111 22.1914 17.6694C20.7049 17.0541 19.1629 16.5827 17.5864 16.2615Z" fill="#06283D"/>
</svg>
