<svg xmlns="http://www.w3.org/2000/svg" width="20.156" height="29.214" viewBox="0 0 20.156 29.214">
  <path id="Shape" d="M9.578,27.954h0a64.5,64.5,0,0,1-4.788-6.359C2.6,18.278,0,13.538,0,9.783A9.84,9.84,0,0,1,2.788,2.848a9.519,9.519,0,0,1,13.58,0,9.84,9.84,0,0,1,2.788,6.936c0,3.755-2.6,8.5-4.789,11.811a64.5,64.5,0,0,1-4.788,6.359Zm0-21.664A3.421,3.421,0,0,0,6.157,9.783a3.422,3.422,0,1,0,6.842,0A3.421,3.421,0,0,0,9.578,6.289Z" transform="translate(19.656 28.714) rotate(180)" fill="none" stroke="#fff" stroke-width="1"/>
</svg>
