<svg width="25" height="24" viewBox="0 0 25 24" fill="none" xmlns="http://www.w3.org/2000/svg">
<path d="M21.5589 0.767578H3.43682C2.52557 0.76843 1.65192 1.1308 1.00757 1.77515C0.363221 2.4195 0.000851238 3.29319 0 4.20444V15.2952C0.000846009 16.2051 0.362159 17.0777 1.00489 17.7218C1.64762 18.366 2.51942 18.7292 3.42937 18.732V23.7689L10.6621 18.732H21.5642C22.4753 18.7309 23.3487 18.3684 23.9928 17.7241C24.6369 17.0798 24.9991 16.2062 25 15.2952V4.20444C24.9991 3.29244 24.6362 2.4181 23.9909 1.77363C23.3456 1.12916 22.4709 0.767294 21.5589 0.767578ZM23.5307 15.2941C23.5301 15.8169 23.3222 16.3181 22.9525 16.6878C22.5829 17.0575 22.0817 17.2654 21.5589 17.266H10.1991L4.89115 20.9601V17.2713H3.43898C2.91618 17.2708 2.41497 17.0629 2.0453 16.6932C1.67562 16.3235 1.46771 15.8223 1.46714 15.2995V4.20444C1.46771 3.68164 1.67562 3.18041 2.0453 2.81073C2.41497 2.44106 2.91618 2.23313 3.43898 2.23256H21.561C22.0838 2.23313 22.585 2.44106 22.9547 2.81073C23.3244 3.18041 23.5323 3.68164 23.5329 4.20444L23.5307 15.2941Z" fill="#06283D"/>
<path d="M18.3053 5.94336H6.68945V7.40834H18.3053V5.94336Z" fill="#06283D"/>
<path d="M18.3053 9.06738H6.68945V10.5324H18.3053V9.06738Z" fill="#06283D"/>
<path d="M18.3053 12.1914H6.68945V13.6564H18.3053V12.1914Z" fill="#06283D"/>
</svg>
