<svg xmlns="http://www.w3.org/2000/svg" xmlns:xlink="http://www.w3.org/1999/xlink" width="27" height="32" viewBox="0 0 27 32">
  <defs>
    <clipPath id="clip-path">
      <rect id="imageMask" width="27" height="32" transform="translate(0 -0.435)" fill="#3f305e"/>
    </clipPath>
  </defs>
  <g id="Icon" transform="translate(0 0.435)" clip-path="url(#clip-path)">
    <g id="Icon-2" data-name="Icon" transform="translate(4.073 3.055)">
      <g id="Icon-3" data-name="Icon" transform="translate(0)">
        <rect id="Layer_1" data-name="Layer 1" transform="translate(-0.073 -0.489)" fill="#3f305e"/>
        <path id="Icon-4" data-name="Icon" d="M7.715,20.4l.122.216.148.2.167.177.192.157.212.125.237.092.244.052.256.02.256-.02.25-.052.231-.092.212-.125.2-.157.167-.177.141-.2.122-.216ZM2.071,17.61l-.147.02-.135.046-.122.079-.109.1-.071.125-.051.138-.013.151.013.151.051.144.071.125.109.1.122.085.135.046.147.02H16.25l.148-.02.141-.046.122-.085.1-.1.077-.125.045-.144.019-.151-.019-.151-.045-.138-.077-.125-.1-.1-.122-.079L16.4,17.63l-.148-.02ZM9.164,3.251l-.494.02-.487.072-.468.1-.449.144-.443.177L6.4,3.978l-.391.242L5.631,4.5l-.353.3-.327.341-.3.354-.276.393L4.136,6.3l-.205.433-.186.439-.128.465-.109.485-.058.492-.019.5v7.039H14.9V9.116l-.019-.5-.064-.492-.1-.485L14.57,7.17,14.4,6.731,14.192,6.3l-.237-.406L13.679,5.5l-.3-.354L13.05,4.8,12.7,4.5l-.378-.282-.4-.242L11.5,3.762l-.436-.177-.449-.144-.475-.1L9.658,3.27l-.494-.02ZM9.292.97l-.25.013L8.8,1.036l-.224.092-.212.111-.186.138-.173.17-.147.19-.122.216.468-.085.475-.046.481-.02.443.013.423.039.43.066.41.092L10.761,1.8l-.147-.2-.173-.184-.2-.151-.212-.124L9.8,1.042,9.549.983,9.292.97Zm0-.97.34.02.321.065.308.092.282.138.276.17.244.2.224.236.2.249.167.275.135.295.1.315.064.328.468.223.455.262.43.295.41.321.391.347.359.373.334.4.3.433.269.446.25.472.205.485.173.511.141.518.1.537.071.551.019.564v7.039l.276.026.256.072.25.085.231.131.212.151.192.184.167.2.148.223.115.242.083.256.058.275.019.275-.019.288-.064.275-.083.262-.122.249-.148.223-.18.2-.192.183L17.3,20.1l-.244.125-.256.092-.269.059-.282.02H11.87l-.1.308-.141.282-.167.275-.192.242-.231.229-.244.19-.269.164-.288.138-.3.092-.321.066-.333.02-.327-.02-.321-.066-.3-.092-.289-.138-.263-.164-.25-.19L7.317,21.5l-.192-.242-.167-.275L6.817,20.7l-.1-.308H2.071l-.276-.02-.276-.059-.25-.092L1.026,20.1.808,19.95l-.2-.183-.173-.2-.154-.223L.16,19.1l-.09-.262-.051-.275L0,18.272.019,18l.051-.275.09-.256.115-.242L.423,17l.167-.2.192-.184.212-.151.231-.131.25-.085.256-.072.276-.026V9.116l.019-.551.064-.537L2.18,7.5l.135-.511.167-.5.2-.472.231-.459.263-.446.289-.42.321-.4.346-.373L4.5,3.578l.391-.321L5.3,2.962l.43-.262.455-.229.468-.21.07-.308.109-.3.141-.282.167-.262.2-.242L7.561.649l.25-.19L8.067.3,8.356.17l.3-.092L8.972.02,9.292,0Z" fill="#3f305e"/>
      </g>
      <path id="Color_Overlay" data-name="Color Overlay" transform="translate(-0.073 -0.489)" fill="#3f305e"/>
    </g>
  </g>
</svg>
