<svg width="27" height="22" viewBox="0 0 27 22" fill="none" xmlns="http://www.w3.org/2000/svg">
<path d="M19.8298 1.07031H7.17012C6.73962 1.07031 6.39062 1.4193 6.39062 1.84981V19.8953C6.39062 20.3258 6.73962 20.6748 7.17012 20.6748H19.8298C20.2603 20.6748 20.6093 20.3258 20.6093 19.8953V1.84981C20.6093 1.4193 20.2603 1.07031 19.8298 1.07031Z" stroke="#06283D" stroke-width="1.5" stroke-linecap="round" stroke-linejoin="round"/>
<path d="M4.46504 4.16016H6.38965V17.5841H4.46504C4.25831 17.5841 4.06004 17.502 3.91386 17.3558C3.76767 17.2096 3.68555 17.0114 3.68555 16.8046V4.93965C3.68555 4.73292 3.76767 4.53465 3.91386 4.38847C4.06004 4.24228 4.25831 4.16016 4.46504 4.16016Z" stroke="#06283D" stroke-width="1.5" stroke-linecap="round" stroke-linejoin="round"/>
<path d="M1.7795 6.76758H3.68622V14.9764H1.7795C1.57276 14.9764 1.37449 14.8943 1.22831 14.7481C1.08213 14.6019 1 14.4037 1 14.1969V7.54707C1 7.34034 1.08213 7.14207 1.22831 6.99589C1.37449 6.8497 1.57276 6.76758 1.7795 6.76758Z" stroke="#06283D" stroke-width="1.5" stroke-linecap="round" stroke-linejoin="round"/>
<path d="M22.5329 17.584H20.6083V4.16009H22.5329C22.7396 4.16009 22.9379 4.24222 23.0841 4.3884C23.2303 4.53458 23.3124 4.73285 23.3124 4.93959V16.8045C23.3124 17.0113 23.2303 17.2096 23.0841 17.3557C22.9379 17.5019 22.7396 17.584 22.5329 17.584Z" stroke="#06283D" stroke-width="1.5" stroke-linecap="round" stroke-linejoin="round"/>
<path d="M25.2205 14.9766H23.3138V6.76772H25.2205C25.4272 6.76772 25.6255 6.84985 25.7717 6.99603C25.9179 7.14221 26 7.34048 26 7.54722V14.1971C26 14.4038 25.9179 14.6021 25.7717 14.7483C25.6255 14.8944 25.4272 14.9766 25.2205 14.9766Z" stroke="#06283D" stroke-width="1.5" stroke-linecap="round" stroke-linejoin="round"/>
<path d="M13.501 13.2433L10.9641 14.577L11.4486 11.7522L9.39258 9.75164L12.229 9.33954L13.4975 6.76953L14.7659 9.33954L17.6023 9.75164L15.5463 11.7522L16.0308 14.577L13.501 13.2433Z" stroke="#06283D" stroke-width="1.5" stroke-linecap="round" stroke-linejoin="round"/>
</svg>
