<svg width="224" height="228" viewBox="0 0 224 228" fill="none" xmlns="http://www.w3.org/2000/svg">
<path d="M145.89 214.798V225.207" stroke="#AF7AB3" stroke-width="4" stroke-linecap="round" stroke-linejoin="round"/>
<path d="M151.095 220.002H140.686" stroke="#AF7AB3" stroke-width="4" stroke-linecap="round" stroke-linejoin="round"/>
<path d="M29.8691 8.77441V19.1834" stroke="#AF7AB3" stroke-width="4" stroke-linecap="round" stroke-linejoin="round"/>
<path d="M35.0731 13.9794H24.6641" stroke="#AF7AB3" stroke-width="4" stroke-linecap="round" stroke-linejoin="round"/>
<path d="M215.163 137.375C218.57 137.375 221.332 134.613 221.332 131.206C221.332 127.799 218.57 125.037 215.163 125.037C211.756 125.037 208.994 127.799 208.994 131.206C208.994 134.613 211.756 137.375 215.163 137.375Z" stroke="#AF7AB3" stroke-width="4" stroke-linecap="round" stroke-linejoin="round"/>
<path d="M122.095 14.9435C125.502 14.9435 128.264 12.1815 128.264 8.77447C128.264 5.36742 125.502 2.60547 122.095 2.60547C118.688 2.60547 115.926 5.36742 115.926 8.77447C115.926 12.1815 118.688 14.9435 122.095 14.9435Z" stroke="#AF7AB3" stroke-width="4" stroke-linecap="round" stroke-linejoin="round"/>
<path d="M8.27642 142.822C11.6835 142.822 14.4454 140.06 14.4454 136.653C14.4454 133.246 11.6835 130.484 8.27642 130.484C4.86938 130.484 2.10742 133.246 2.10742 136.653C2.10742 140.06 4.86938 142.822 8.27642 142.822Z" stroke="#AF7AB3" stroke-width="4" stroke-linecap="round" stroke-linejoin="round"/>
<path d="M106.501 198.35L41.0176 170.338V74.955L106.501 102.967V198.35Z" fill="#F5D4F8" stroke="#AF7AB3" stroke-width="4" stroke-linecap="round" stroke-linejoin="round"/>
<path d="M171.983 170.339L106.5 198.351V102.967L171.983 74.955V170.339Z" fill="#E1ABE6" stroke="#AF7AB3" stroke-width="4" stroke-linecap="round" stroke-linejoin="round"/>
<path d="M171.984 74.9554L106.501 46.9434L41.0176 74.9554L106.501 102.967L171.984 74.9554Z" fill="#AF7AB3" stroke="#AF7AB3" stroke-width="4" stroke-linecap="round" stroke-linejoin="round"/>
<path d="M106.5 102.967L69.4898 118.774L4.00684 90.762L41.0168 74.955L106.5 102.967Z" fill="#E1ABE6" stroke="#AF7AB3" stroke-width="4" stroke-linecap="round" stroke-linejoin="round"/>
<path d="M106.5 102.967L143.51 118.774L208.993 90.762L171.983 74.955L106.5 102.967Z" fill="#E1ABE6" stroke="#AF7AB3" stroke-width="4" stroke-linecap="round" stroke-linejoin="round"/>
<path d="M8.27637 60.9485L41.0174 74.9545L106.5 46.9425L73.7594 32.9375L8.27637 60.9485Z" fill="#E1ABE6" stroke="#AF7AB3" stroke-width="4" stroke-linecap="round" stroke-linejoin="round"/>
<path d="M204.724 60.9485L171.983 74.9545L106.5 46.9425L139.239 32.9375L204.724 60.9485Z" fill="#E1ABE6" stroke="#AF7AB3" stroke-width="4" stroke-linecap="round" stroke-linejoin="round"/>
<path d="M106.5 84.9454C119.526 84.9454 130.085 74.386 130.085 61.3604C130.085 48.3348 119.526 37.7754 106.5 37.7754C93.4744 37.7754 82.915 48.3348 82.915 61.3604C82.915 74.386 93.4744 84.9454 106.5 84.9454Z" fill="white" stroke="#AF7AB3" stroke-width="4" stroke-linecap="round" stroke-linejoin="round"/>
<path d="M97.0586 63.5188L102.674 69.1338L115.925 55.8828" stroke="#AF7AB3" stroke-width="4" stroke-linecap="round" stroke-linejoin="round"/>
<path d="M140.686 165.073L116.974 175.216" stroke="#AF7AB3" stroke-width="4" stroke-linecap="round" stroke-linejoin="round"/>
<path d="M133.188 175.785L116.974 182.721" stroke="#AF7AB3" stroke-width="4" stroke-linecap="round" stroke-linejoin="round"/>
</svg>
