<svg xmlns="http://www.w3.org/2000/svg" width="81.661" height="66.379" viewBox="0 0 81.661 66.379">
  <g id="Group_12362" data-name="Group 12362" transform="translate(515.481 -367.46)">
    <path id="Path_950" data-name="Path 950" d="M-451.933,458.38l-25.288-10.818V410.727l25.288,10.818Z" transform="translate(-22.718 -25.791)" fill="#fff" stroke="#132849" stroke-linecap="round" stroke-linejoin="round" stroke-width="2.5"/>
    <path id="Path_951" data-name="Path 951" d="M-386.451,447.562l-25.288,10.818V421.545l25.288-10.818Z" transform="translate(-62.912 -25.791)" fill="#fff" stroke="#132849" stroke-linecap="round" stroke-linejoin="round" stroke-width="2.5"/>
    <path id="Path_953" data-name="Path 953" d="M-474.651,421.545l-14.292,6.1-25.288-10.818,14.292-6.1Z" transform="translate(0 -25.791)" fill="#fff" stroke="#132849" stroke-linecap="round" stroke-linejoin="round" stroke-width="2.5"/>
    <path id="Path_954" data-name="Path 954" d="M-411.739,421.545l14.292,6.1,25.288-10.818-14.293-6.1Z" transform="translate(-62.912 -25.791)" fill="#fff" stroke="#132849" stroke-linecap="round" stroke-linejoin="round" stroke-width="2.5"/>
    <path id="Path_955" data-name="Path 955" d="M-509.963,379.527l12.644,5.409,25.288-10.818-12.644-5.409Z" transform="translate(-2.62)" fill="#fff" stroke="#132849" stroke-linecap="round" stroke-linejoin="round" stroke-width="2.5"/>
    <path id="Path_956" data-name="Path 956" d="M-373.807,379.527l-12.644,5.409-25.288-10.818,12.644-5.409Z" transform="translate(-62.912)" fill="#fff" stroke="#132849" stroke-linecap="round" stroke-linejoin="round" stroke-width="2.5"/>
    <g id="Group_1546" data-name="Group 1546" transform="translate(-483.759 370.578)">
      <path id="Path_19636" data-name="Path 19636" d="M9.108,0A9.108,9.108,0,1,1,0,9.108,9.108,9.108,0,0,1,9.108,0Z" fill="#b3874b" stroke="#ac8854" stroke-linecap="round" stroke-width="2"/>
      <path id="Path_957" data-name="Path 957" d="M-421.181,394.6l2.168,2.168,5.117-5.117" transform="translate(426.643 -384.661)" fill="none" stroke="#fff" stroke-linecap="round" stroke-linejoin="round" stroke-width="2"/>
    </g>
    <line id="Line_319" data-name="Line 319" x1="9.157" y2="3.917" transform="translate(-470.606 419.737)" fill="none" stroke="#132849" stroke-linecap="round" stroke-linejoin="round" stroke-width="2"/>
    <line id="Line_320" data-name="Line 320" x1="6.262" y2="2.679" transform="translate(-470.606 423.874)" fill="none" stroke="#132849" stroke-linecap="round" stroke-linejoin="round" stroke-width="2"/>
  </g>
</svg>
