<svg width="13" height="22" viewBox="0 0 13 22" fill="none" xmlns="http://www.w3.org/2000/svg">
<mask id="mask0_1_127" style="mask-type:luminance" maskUnits="userSpaceOnUse" x="0" y="0" width="13" height="22">
<path d="M0.5 21.5V0.5H12.5V21.5H0.5Z" fill="white" stroke="white"/>
</mask>
<g mask="url(#mask0_1_127)">
<mask id="path-2-inside-1_1_127" fill="white">
<path d="M11.5619 21.972H1.2829C0.952438 21.972 0.635526 21.8407 0.401855 21.6071C0.168185 21.3734 0.0368652 21.0564 0.0368652 20.726V1.41299C0.0368652 1.08253 0.168185 0.765622 0.401855 0.531952C0.635526 0.298282 0.952438 0.166992 1.2829 0.166992H11.5619C11.8923 0.166992 12.2093 0.298282 12.4429 0.531952C12.6766 0.765622 12.8079 1.08253 12.8079 1.41299V20.726C12.8079 21.0564 12.6766 21.3734 12.4429 21.6071C12.2093 21.8407 11.8923 21.972 11.5619 21.972ZM1.2829 0.787994C1.11767 0.787994 0.959181 0.853624 0.842346 0.970459C0.725511 1.08729 0.659912 1.24575 0.659912 1.41098V20.724C0.659912 20.8892 0.725511 21.0477 0.842346 21.1645C0.959181 21.2814 1.11767 21.347 1.2829 21.347H11.5619C11.7271 21.347 11.8856 21.2814 12.0024 21.1645C12.1193 21.0477 12.1849 20.8892 12.1849 20.724V1.41299C12.1849 1.24776 12.1193 1.08931 12.0024 0.972473C11.8856 0.855638 11.7271 0.790009 11.5619 0.790009L1.2829 0.787994Z"/>
</mask>
<path d="M11.5619 21.972H1.2829C0.952438 21.972 0.635526 21.8407 0.401855 21.6071C0.168185 21.3734 0.0368652 21.0564 0.0368652 20.726V1.41299C0.0368652 1.08253 0.168185 0.765622 0.401855 0.531952C0.635526 0.298282 0.952438 0.166992 1.2829 0.166992H11.5619C11.8923 0.166992 12.2093 0.298282 12.4429 0.531952C12.6766 0.765622 12.8079 1.08253 12.8079 1.41299V20.726C12.8079 21.0564 12.6766 21.3734 12.4429 21.6071C12.2093 21.8407 11.8923 21.972 11.5619 21.972ZM1.2829 0.787994C1.11767 0.787994 0.959181 0.853624 0.842346 0.970459C0.725511 1.08729 0.659912 1.24575 0.659912 1.41098V20.724C0.659912 20.8892 0.725511 21.0477 0.842346 21.1645C0.959181 21.2814 1.11767 21.347 1.2829 21.347H11.5619C11.7271 21.347 11.8856 21.2814 12.0024 21.1645C12.1193 21.0477 12.1849 20.8892 12.1849 20.724V1.41299C12.1849 1.24776 12.1193 1.08931 12.0024 0.972473C11.8856 0.855638 11.7271 0.790009 11.5619 0.790009L1.2829 0.787994Z" fill="#223985"/>
<path d="M11.5619 21.972V20.972V21.972ZM0.0368652 1.41299H1.03687H0.0368652ZM1.2829 0.166992V1.16699V0.166992ZM11.5619 0.166992V1.16699V0.166992ZM12.8079 20.726H13.8079H12.8079ZM1.2829 0.787994L1.28309 -0.212006H1.2829V0.787994ZM0.659912 1.41098H-0.340088H0.659912ZM11.5619 21.347V22.347V21.347ZM12.1849 1.41299H13.1849H12.1849ZM11.5619 0.790009L11.5617 1.79001H11.5619V0.790009ZM11.5619 20.972H1.2829V22.972H11.5619V20.972ZM1.2829 20.972C1.21763 20.972 1.15508 20.9461 1.10896 20.8999L-0.305251 22.3142C0.115971 22.7354 0.687243 22.972 1.2829 22.972V20.972ZM1.10896 20.8999C1.06277 20.8538 1.03687 20.7911 1.03687 20.726H-0.963135C-0.963135 21.3217 -0.726403 21.893 -0.305251 22.3142L1.10896 20.8999ZM1.03687 20.726V1.41299H-0.963135V20.726H1.03687ZM1.03687 1.41299C1.03687 1.34785 1.06275 1.28527 1.10896 1.23906L-0.305251 -0.175155C-0.726385 0.245978 -0.963135 0.817214 -0.963135 1.41299H1.03687ZM1.10896 1.23906C1.15513 1.1929 1.2177 1.16699 1.2829 1.16699V-0.833008C0.687181 -0.833008 0.115926 -0.596333 -0.305251 -0.175155L1.10896 1.23906ZM1.2829 1.16699H11.5619V-0.833008H1.2829V1.16699ZM11.5619 1.16699C11.6271 1.16699 11.6897 1.1929 11.7358 1.23906L13.15 -0.175155C12.7289 -0.596333 12.1576 -0.833008 11.5619 -0.833008V1.16699ZM11.7358 1.23906C11.782 1.28527 11.8079 1.34785 11.8079 1.41299H13.8079C13.8079 0.817214 13.5712 0.245978 13.15 -0.175155L11.7358 1.23906ZM11.8079 1.41299V20.726H13.8079V1.41299H11.8079ZM11.8079 20.726C11.8079 20.7911 11.782 20.8538 11.7358 20.8999L13.15 22.3142C13.5712 21.893 13.8079 21.3217 13.8079 20.726H11.8079ZM11.7358 20.8999C11.6897 20.9461 11.6272 20.972 11.5619 20.972V22.972C12.1575 22.972 12.7288 22.7354 13.15 22.3142L11.7358 20.8999ZM1.2829 -0.212006C0.852525 -0.212006 0.439663 -0.0410714 0.135239 0.263352L1.54945 1.67757C1.4787 1.74832 1.38281 1.78799 1.2829 1.78799V-0.212006ZM0.135239 0.263352C-0.169236 0.567828 -0.340088 0.980681 -0.340088 1.41098H1.65991C1.65991 1.51082 1.62026 1.60676 1.54945 1.67757L0.135239 0.263352ZM-0.340088 1.41098V20.724H1.65991V1.41098H-0.340088ZM-0.340088 20.724C-0.340088 21.1543 -0.169236 21.5672 0.135239 21.8716L1.54945 20.4574C1.62026 20.5282 1.65991 20.6242 1.65991 20.724H-0.340088ZM0.135239 21.8716C0.439663 22.1761 0.852525 22.347 1.2829 22.347V20.347C1.38281 20.347 1.4787 20.3867 1.54945 20.4574L0.135239 21.8716ZM1.2829 22.347H11.5619V20.347H1.2829V22.347ZM11.5619 22.347C11.9923 22.347 12.4051 22.1761 12.7095 21.8716L11.2953 20.4574C11.3661 20.3867 11.462 20.347 11.5619 20.347V22.347ZM12.7095 21.8716C13.014 21.5672 13.1849 21.1543 13.1849 20.724H11.1849C11.1849 20.6242 11.2245 20.5282 11.2953 20.4574L12.7095 21.8716ZM13.1849 20.724V1.41299H11.1849V20.724H13.1849ZM13.1849 1.41299C13.1849 0.982695 13.014 0.569842 12.7095 0.265366L11.2953 1.67958C11.2245 1.60877 11.1849 1.51283 11.1849 1.41299H13.1849ZM12.7095 0.265366C12.4051 -0.0390573 11.9923 -0.209991 11.5619 -0.209991V1.79001C11.462 1.79001 11.3661 1.75033 11.2953 1.67958L12.7095 0.265366ZM11.5621 -0.209991L1.28309 -0.212006L1.2827 1.78799L11.5617 1.79001L11.5621 -0.209991Z" fill="#06283D" mask="url(#path-2-inside-1_1_127)"/>
<mask id="path-4-inside-2_1_127" fill="white">
<path d="M12.4971 3.59299H0.34906C0.266445 3.59299 0.187202 3.56019 0.128784 3.50177C0.0703666 3.44335 0.0375977 3.36411 0.0375977 3.28149C0.0375977 3.19888 0.0703666 3.11967 0.128784 3.06125C0.187202 3.00283 0.266445 2.97 0.34906 2.97H12.4971C12.5797 2.97 12.6589 3.00283 12.7173 3.06125C12.7758 3.11967 12.8086 3.19888 12.8086 3.28149C12.8086 3.36411 12.7758 3.44335 12.7173 3.50177C12.6589 3.56019 12.5797 3.59299 12.4971 3.59299Z"/>
</mask>
<path d="M12.4971 3.59299H0.34906C0.266445 3.59299 0.187202 3.56019 0.128784 3.50177C0.0703666 3.44335 0.0375977 3.36411 0.0375977 3.28149C0.0375977 3.19888 0.0703666 3.11967 0.128784 3.06125C0.187202 3.00283 0.266445 2.97 0.34906 2.97H12.4971C12.5797 2.97 12.6589 3.00283 12.7173 3.06125C12.7758 3.11967 12.8086 3.19888 12.8086 3.28149C12.8086 3.36411 12.7758 3.44335 12.7173 3.50177C12.6589 3.56019 12.5797 3.59299 12.4971 3.59299Z" fill="#223985"/>
<path d="M0.34906 3.59299V4.59299V3.59299ZM12.4971 2.59299H0.34906V4.59299H12.4971V2.59299ZM0.34906 2.59299C0.531462 2.59299 0.706631 2.6654 0.835891 2.79466L-0.578323 4.20888C-0.332228 4.45497 0.00142786 4.59299 0.34906 4.59299V2.59299ZM0.835891 2.79466C0.965328 2.9241 1.0376 3.09934 1.0376 3.28149H-0.962402C-0.962402 3.62888 -0.824595 3.9626 -0.578323 4.20888L0.835891 2.79466ZM1.0376 3.28149C1.0376 3.46375 0.965255 3.63899 0.835891 3.76836L-0.578323 2.35414C-0.824521 2.60034 -0.962402 2.93401 -0.962402 3.28149H1.0376ZM0.835891 3.76836C0.706809 3.89744 0.531713 3.97 0.34906 3.97V1.97C0.0011768 1.97 -0.332405 2.10822 -0.578323 2.35414L0.835891 3.76836ZM0.34906 3.97H12.4971V1.97H0.34906V3.97ZM12.4971 3.97C12.3144 3.97 12.1393 3.89744 12.0102 3.76836L13.4245 2.35414C13.1785 2.10822 12.845 1.97 12.4971 1.97V3.97ZM12.0102 3.76836C11.8812 3.63935 11.8086 3.46425 11.8086 3.28149H13.8086C13.8086 2.93351 13.6703 2.59999 13.4245 2.35414L12.0102 3.76836ZM11.8086 3.28149C11.8086 3.09884 11.8812 2.92375 12.0102 2.79466L13.4245 4.20888C13.6704 3.96296 13.8086 3.62938 13.8086 3.28149H11.8086ZM12.0102 2.79466C12.1395 2.6654 12.3147 2.59299 12.4971 2.59299V4.59299C12.8447 4.59299 13.1784 4.45497 13.4245 4.20888L12.0102 2.79466Z" fill="#06283D" mask="url(#path-4-inside-2_1_127)"/>
<mask id="path-6-inside-3_1_127" fill="white">
<path d="M12.4969 17.922H0.348938C0.306547 17.9244 0.264125 17.9182 0.224243 17.9036C0.184361 17.889 0.147866 17.8665 0.117004 17.8373C0.0861432 17.8082 0.0615409 17.773 0.0447388 17.734C0.0279366 17.695 0.0192871 17.653 0.0192871 17.6105C0.0192871 17.5681 0.0279366 17.526 0.0447388 17.487C0.0615409 17.448 0.0861432 17.4129 0.117004 17.3838C0.147866 17.3546 0.184361 17.3321 0.224243 17.3175C0.264125 17.3029 0.306547 17.2966 0.348938 17.299H12.4969C12.5393 17.2966 12.5818 17.3029 12.6216 17.3175C12.6615 17.3321 12.698 17.3546 12.7289 17.3838C12.7597 17.4129 12.7843 17.448 12.8011 17.487C12.8179 17.526 12.8266 17.5681 12.8266 17.6105C12.8266 17.653 12.8179 17.695 12.8011 17.734C12.7843 17.773 12.7597 17.8082 12.7289 17.8373C12.698 17.8665 12.6615 17.889 12.6216 17.9036C12.5818 17.9182 12.5393 17.9244 12.4969 17.922Z"/>
</mask>
<path d="M12.4969 17.922H0.348938C0.306547 17.9244 0.264125 17.9182 0.224243 17.9036C0.184361 17.889 0.147866 17.8665 0.117004 17.8373C0.0861432 17.8082 0.0615409 17.773 0.0447388 17.734C0.0279366 17.695 0.0192871 17.653 0.0192871 17.6105C0.0192871 17.5681 0.0279366 17.526 0.0447388 17.487C0.0615409 17.448 0.0861432 17.4129 0.117004 17.3838C0.147866 17.3546 0.184361 17.3321 0.224243 17.3175C0.264125 17.3029 0.306547 17.2966 0.348938 17.299H12.4969C12.5393 17.2966 12.5818 17.3029 12.6216 17.3175C12.6615 17.3321 12.698 17.3546 12.7289 17.3838C12.7597 17.4129 12.7843 17.448 12.8011 17.487C12.8179 17.526 12.8266 17.5681 12.8266 17.6105C12.8266 17.653 12.8179 17.695 12.8011 17.734C12.7843 17.773 12.7597 17.8082 12.7289 17.8373C12.698 17.8665 12.6615 17.889 12.6216 17.9036C12.5818 17.9182 12.5393 17.9244 12.4969 17.922Z" fill="#223985"/>
<path d="M12.4969 17.922L12.5535 16.9236L12.5253 16.922H12.4969V17.922ZM0.348938 17.922V16.922H0.32062L0.292347 16.9236L0.348938 17.922ZM0.348938 17.299L0.292347 18.2974L0.32062 18.299H0.348938V17.299ZM12.4969 17.299V18.299H12.5253L12.5535 18.2974L12.4969 17.299ZM12.4969 16.922H0.348938V18.922H12.4969V16.922ZM0.292347 16.9236C0.38573 16.9183 0.479326 16.9322 0.56736 16.9643L-0.118874 18.8429C0.0489238 18.9042 0.227363 18.9305 0.405529 18.9204L0.292347 16.9236ZM0.56736 16.9643C0.65523 16.9964 0.735702 17.0461 0.803812 17.1105L-0.569803 18.5642C-0.439971 18.6868 -0.286508 18.7817 -0.118874 18.8429L0.56736 16.9643ZM0.803812 17.1105C0.871853 17.1748 0.926052 17.2523 0.963109 17.3383L-0.873631 18.1297C-0.80297 18.2937 -0.699566 18.4415 -0.569803 18.5642L0.803812 17.1105ZM0.963109 17.3383C1.00028 17.4245 1.01929 17.5172 1.01929 17.6105H-0.980713C-0.980713 17.7888 -0.944403 17.9655 -0.873631 18.1297L0.963109 17.3383ZM1.01929 17.6105C1.01929 17.7038 1.00028 17.7965 0.963109 17.8828L-0.873631 17.0913C-0.944403 17.2556 -0.980713 17.4323 -0.980713 17.6105H1.01929ZM0.963109 17.8828C0.925829 17.9693 0.871442 18.0467 0.803812 18.1106L-0.569803 16.6569C-0.699156 16.7792 -0.802747 16.9268 -0.873631 17.0913L0.963109 17.8828ZM0.803812 18.1106C0.735702 18.175 0.65523 18.2247 0.56736 18.2568L-0.118874 16.3782C-0.286508 16.4394 -0.439971 16.5342 -0.569803 16.6569L0.803812 18.1106ZM0.56736 18.2568C0.480241 18.2886 0.3867 18.3027 0.292347 18.2974L0.405529 16.3006C0.226393 16.2904 0.0480085 16.3172 -0.118874 16.3782L0.56736 18.2568ZM0.348938 18.299H12.4969V16.299H0.348938V18.299ZM12.5535 18.2974C12.4592 18.3027 12.3656 18.2886 12.2785 18.2568L12.9648 16.3782C12.7979 16.3172 12.6195 16.2904 12.4404 16.3006L12.5535 18.2974ZM12.2785 18.2568C12.1907 18.2247 12.1102 18.175 12.0421 18.1106L13.4157 16.6569C13.2859 16.5342 13.1324 16.4394 12.9648 16.3782L12.2785 18.2568ZM12.0421 18.1106C11.9744 18.0467 11.9201 17.9693 11.8828 17.8828L13.7195 17.0913C13.6486 16.9268 13.545 16.7792 13.4157 16.6569L12.0421 18.1106ZM11.8828 17.8828C11.8456 17.7965 11.8266 17.7038 11.8266 17.6105H13.8266C13.8266 17.4323 13.7903 17.2556 13.7195 17.0913L11.8828 17.8828ZM11.8266 17.6105C11.8266 17.5172 11.8456 17.4245 11.8828 17.3383L13.7195 18.1297C13.7903 17.9655 13.8266 17.7888 13.8266 17.6105H11.8266ZM11.8828 17.3383C11.9198 17.2523 11.974 17.1748 12.0421 17.1105L13.4157 18.5642C13.5455 18.4415 13.6489 18.2937 13.7195 18.1297L11.8828 17.3383ZM12.0421 17.1105C12.1102 17.0461 12.1907 16.9964 12.2785 16.9643L12.9648 18.8429C13.1324 18.7817 13.2859 18.6868 13.4157 18.5642L12.0421 17.1105ZM12.2785 16.9643C12.3666 16.9322 12.4602 16.9183 12.5535 16.9236L12.4404 18.9204C12.6185 18.9305 12.797 18.9042 12.9648 18.8429L12.2785 16.9643Z" fill="#06283D" mask="url(#path-6-inside-3_1_127)"/>
</g>
<mask id="path-8-inside-4_1_127" fill="white">
<path d="M6.42295 20.784C6.19569 20.784 5.97353 20.7166 5.78458 20.5903C5.59563 20.4641 5.44839 20.2846 5.36142 20.0747C5.27446 19.8647 5.25166 19.6337 5.29599 19.4108C5.34033 19.1879 5.44975 18.9832 5.61045 18.8225C5.77114 18.6618 5.97588 18.5524 6.19876 18.508C6.42165 18.4637 6.65269 18.4865 6.86264 18.5735C7.0726 18.6604 7.25201 18.8077 7.37827 18.9966C7.50452 19.1856 7.57193 19.4077 7.57193 19.635C7.57193 19.9397 7.45086 20.2319 7.23538 20.4474C7.01991 20.6629 6.72768 20.784 6.42295 20.784ZM6.42295 19.11C6.31891 19.11 6.21721 19.1408 6.13071 19.1986C6.04421 19.2564 5.9768 19.3386 5.93698 19.4347C5.89717 19.5308 5.88672 19.6365 5.90702 19.7386C5.92731 19.8406 5.97743 19.9343 6.051 20.0079C6.12456 20.0815 6.21831 20.1316 6.32035 20.1519C6.42238 20.1722 6.52813 20.1617 6.62424 20.1219C6.72035 20.0821 6.80246 20.0147 6.86026 19.9282C6.91806 19.8417 6.94895 19.74 6.94895 19.636C6.94895 19.4965 6.89354 19.3627 6.79489 19.264C6.69625 19.1654 6.56245 19.11 6.42295 19.11Z"/>
</mask>
<path d="M6.42295 20.784C6.19569 20.784 5.97353 20.7166 5.78458 20.5903C5.59563 20.4641 5.44839 20.2846 5.36142 20.0747C5.27446 19.8647 5.25166 19.6337 5.29599 19.4108C5.34033 19.1879 5.44975 18.9832 5.61045 18.8225C5.77114 18.6618 5.97588 18.5524 6.19876 18.508C6.42165 18.4637 6.65269 18.4865 6.86264 18.5735C7.0726 18.6604 7.25201 18.8077 7.37827 18.9966C7.50452 19.1856 7.57193 19.4077 7.57193 19.635C7.57193 19.9397 7.45086 20.2319 7.23538 20.4474C7.01991 20.6629 6.72768 20.784 6.42295 20.784ZM6.42295 19.11C6.31891 19.11 6.21721 19.1408 6.13071 19.1986C6.04421 19.2564 5.9768 19.3386 5.93698 19.4347C5.89717 19.5308 5.88672 19.6365 5.90702 19.7386C5.92731 19.8406 5.97743 19.9343 6.051 20.0079C6.12456 20.0815 6.21831 20.1316 6.32035 20.1519C6.42238 20.1722 6.52813 20.1617 6.62424 20.1219C6.72035 20.0821 6.80246 20.0147 6.86026 19.9282C6.91806 19.8417 6.94895 19.74 6.94895 19.636C6.94895 19.4965 6.89354 19.3627 6.79489 19.264C6.69625 19.1654 6.56245 19.11 6.42295 19.11Z" fill="#223985"/>
<path d="M6.42295 19.11V18.11V19.11ZM6.94895 19.636H5.94895H6.94895ZM6.42295 19.784C6.39353 19.784 6.3647 19.7752 6.34015 19.7588L5.22901 21.4218C5.58237 21.6579 5.99786 21.784 6.42295 21.784V19.784ZM6.34015 19.7588C6.31566 19.7425 6.29658 19.7192 6.2853 19.692L4.43754 20.4574C4.60019 20.85 4.8756 21.1856 5.22901 21.4218L6.34015 19.7588ZM6.2853 19.692C6.27397 19.6646 6.27105 19.6347 6.27678 19.6059L4.31521 19.2157C4.23226 19.6327 4.27494 20.0648 4.43754 20.4574L6.2853 19.692ZM6.27678 19.6059C6.28253 19.577 6.29673 19.5504 6.31755 19.5296L4.90334 18.1154C4.60278 18.4159 4.39812 18.7989 4.31521 19.2157L6.27678 19.6059ZM6.31755 19.5296C6.33837 19.5088 6.36493 19.4946 6.39385 19.4888L6.00367 17.5272C5.58683 17.6102 5.2039 17.8148 4.90334 18.1154L6.31755 19.5296ZM6.39385 19.4888C6.42263 19.4831 6.45261 19.486 6.47996 19.4973L7.24533 17.6496C6.85277 17.487 6.42067 17.4443 6.00367 17.5272L6.39385 19.4888ZM6.47996 19.4973C6.5072 19.5086 6.53043 19.5277 6.5468 19.5522L8.20974 18.441C7.97359 18.0876 7.63799 17.8122 7.24533 17.6496L6.47996 19.4973ZM6.5468 19.5522C6.5632 19.5767 6.57193 19.6056 6.57193 19.635H8.57193C8.57193 19.2099 8.44584 18.7944 8.20974 18.441L6.5468 19.5522ZM6.57193 19.635C6.57193 19.6744 6.55626 19.7123 6.52828 19.7403L7.94249 21.1545C8.34547 20.7516 8.57193 20.205 8.57193 19.635H6.57193ZM6.52828 19.7403C6.5003 19.7683 6.46241 19.784 6.42295 19.784V21.784C6.99295 21.784 7.53951 21.5575 7.94249 21.1545L6.52828 19.7403ZM6.42295 18.11C6.1209 18.11 5.8259 18.1996 5.57514 18.3672L6.68628 20.0301C6.60852 20.0821 6.51692 20.11 6.42295 20.11V18.11ZM5.57514 18.3672C5.32431 18.5348 5.12866 18.773 5.0131 19.052L6.86086 19.8173C6.82493 19.9041 6.76411 19.9781 6.68628 20.0301L5.57514 18.3672ZM5.0131 19.052C4.8977 19.3306 4.8673 19.6374 4.92623 19.9336L6.8878 19.5435C6.90614 19.6357 6.89664 19.731 6.86086 19.8173L5.0131 19.052ZM4.92623 19.9336C4.98513 20.2297 5.13053 20.5017 5.34389 20.715L6.7581 19.3008C6.82434 19.367 6.8695 19.4514 6.8878 19.5435L4.92623 19.9336ZM5.34389 20.715C5.55725 20.9284 5.82917 21.0738 6.12526 21.1327L6.51544 19.1711C6.60746 19.1894 6.69187 19.2346 6.7581 19.3008L5.34389 20.715ZM6.12526 21.1327C6.42152 21.1916 6.72832 21.1612 7.00692 21.0458L6.24156 19.198C6.32794 19.1623 6.42324 19.1528 6.51544 19.1711L6.12526 21.1327ZM7.00692 21.0458C7.28589 20.9302 7.52413 20.7346 7.69173 20.4838L6.02879 19.3726C6.0808 19.2948 6.15482 19.234 6.24156 19.198L7.00692 21.0458ZM7.69173 20.4838C7.85928 20.233 7.94895 19.938 7.94895 19.636H5.94895C5.94895 19.542 5.97684 19.4504 6.02879 19.3726L7.69173 20.4838ZM7.94895 19.636C7.94895 19.2313 7.78823 18.8431 7.502 18.5569L6.08779 19.9711C5.99885 19.8822 5.94895 19.7616 5.94895 19.636H7.94895ZM7.502 18.5569C7.21577 18.2707 6.8276 18.11 6.42295 18.11V20.11C6.2973 20.11 6.17672 20.0601 6.08779 19.9711L7.502 18.5569Z" fill="#06283D" mask="url(#path-8-inside-4_1_127)"/>
<mask id="path-10-inside-5_1_127" fill="white">
<path d="M7.66907 2.26899H5.17706C5.13467 2.2714 5.09225 2.26513 5.05237 2.25056C5.01249 2.23599 4.97599 2.21344 4.94513 2.18428C4.91427 2.15512 4.88967 2.11997 4.87286 2.08098C4.85606 2.04198 4.84741 1.99996 4.84741 1.9575C4.84741 1.91504 4.85606 1.87302 4.87286 1.83403C4.88967 1.79503 4.91427 1.75989 4.94513 1.73073C4.97599 1.70156 5.01249 1.67901 5.05237 1.66444C5.09225 1.64987 5.13467 1.64361 5.17706 1.64601H7.66907C7.74863 1.65052 7.82344 1.68528 7.87817 1.74321C7.93291 1.80113 7.96344 1.87781 7.96344 1.9575C7.96344 2.03719 7.93291 2.11387 7.87817 2.1718C7.82344 2.22972 7.74863 2.26448 7.66907 2.26899Z"/>
</mask>
<path d="M7.66907 2.26899H5.17706C5.13467 2.2714 5.09225 2.26513 5.05237 2.25056C5.01249 2.23599 4.97599 2.21344 4.94513 2.18428C4.91427 2.15512 4.88967 2.11997 4.87286 2.08098C4.85606 2.04198 4.84741 1.99996 4.84741 1.9575C4.84741 1.91504 4.85606 1.87302 4.87286 1.83403C4.88967 1.79503 4.91427 1.75989 4.94513 1.73073C4.97599 1.70156 5.01249 1.67901 5.05237 1.66444C5.09225 1.64987 5.13467 1.64361 5.17706 1.64601H7.66907C7.74863 1.65052 7.82344 1.68528 7.87817 1.74321C7.93291 1.80113 7.96344 1.87781 7.96344 1.9575C7.96344 2.03719 7.93291 2.11387 7.87817 2.1718C7.82344 2.22972 7.74863 2.26448 7.66907 2.26899Z" fill="#223985"/>
<path d="M7.66907 2.26899V3.26899H7.69739L7.72566 3.26739L7.66907 2.26899ZM5.17706 2.26899V1.26899H5.14874L5.12047 1.2706L5.17706 2.26899ZM5.17706 1.64601L5.12047 2.64441L5.14874 2.64601H5.17706V1.64601ZM7.66907 1.64601L7.72566 0.647611L7.69739 0.646008H7.66907V1.64601ZM7.66907 1.26899H5.17706V3.26899H7.66907V1.26899ZM5.12047 1.2706C5.21386 1.2653 5.30745 1.27911 5.39548 1.31127L4.70925 3.18985C4.87705 3.25115 5.05549 3.27749 5.23365 3.26739L5.12047 1.2706ZM5.39548 1.31127C5.48336 1.34337 5.56383 1.39308 5.63194 1.45744L4.25832 2.91112C4.38815 3.0338 4.54162 3.12862 4.70925 3.18985L5.39548 1.31127ZM5.63194 1.45744C5.69977 1.52154 5.75407 1.59899 5.79123 1.68525L3.95449 2.4767C4.02527 2.64094 4.12876 2.78869 4.25832 2.91112L5.63194 1.45744ZM5.79123 1.68525C5.8284 1.77151 5.84741 1.86417 5.84741 1.9575H3.84741C3.84741 2.13575 3.88372 2.31246 3.95449 2.4767L5.79123 1.68525ZM5.84741 1.9575C5.84741 2.05084 5.8284 2.14349 5.79123 2.22975L3.95449 1.4383C3.88372 1.60255 3.84741 1.77925 3.84741 1.9575H5.84741ZM5.79123 2.22975C5.75407 2.31601 5.69977 2.39346 5.63194 2.45756L4.25832 1.00389C4.12876 1.12631 4.02527 1.27406 3.95449 1.4383L5.79123 2.22975ZM5.63194 2.45756C5.56383 2.52192 5.48336 2.57164 5.39548 2.60373L4.70925 0.725148C4.54162 0.786384 4.38815 0.881204 4.25832 1.00389L5.63194 2.45756ZM5.39548 2.60373C5.30745 2.63589 5.21386 2.6497 5.12047 2.64441L5.23365 0.647611C5.05549 0.637512 4.87705 0.663853 4.70925 0.725148L5.39548 2.60373ZM5.17706 2.64601H7.66907V0.646008H5.17706V2.64601ZM7.61248 2.64441C7.43713 2.63447 7.2721 2.55782 7.15133 2.43001L8.60501 1.0564C8.37479 0.812752 8.06013 0.666569 7.72566 0.647611L7.61248 2.64441ZM7.15133 2.43001C7.03085 2.30251 6.96344 2.13354 6.96344 1.9575H8.96344C8.96344 1.62209 8.83496 1.29975 8.60501 1.0564L7.15133 2.43001ZM6.96344 1.9575C6.96344 1.78147 7.03085 1.61249 7.15133 1.48499L8.60501 2.8586C8.83496 2.61525 8.96344 2.29292 8.96344 1.9575H6.96344ZM7.15133 1.48499C7.2721 1.35719 7.43713 1.28054 7.61248 1.2706L7.72566 3.26739C8.06013 3.24843 8.37479 3.10225 8.60501 2.8586L7.15133 1.48499Z" fill="#06283D" mask="url(#path-10-inside-5_1_127)"/>
</svg>
