<svg xmlns="http://www.w3.org/2000/svg" xmlns:xlink="http://www.w3.org/1999/xlink" width="22" height="18.333" viewBox="0 0 22 18.333">
  <defs>
    <clipPath id="clip-path">
      <path id="Combined_Shape" data-name="Combined Shape" d="M21.084,18.333a.918.918,0,0,1-.917-.917V15.584A2.749,2.749,0,0,0,18.1,12.924a.917.917,0,1,1,.459-1.775A4.584,4.584,0,0,1,22,15.583v1.833A.918.918,0,0,1,21.084,18.333Zm-5.5,0a.918.918,0,0,1-.917-.917V15.583a2.753,2.753,0,0,0-2.751-2.75H4.584a2.753,2.753,0,0,0-2.751,2.75v1.833a.917.917,0,0,1-1.833,0V15.583A4.589,4.589,0,0,1,4.584,11h7.333A4.589,4.589,0,0,1,16.5,15.583v1.833A.918.918,0,0,1,15.583,18.333ZM8.25,9.167a4.583,4.583,0,1,1,4.584-4.583A4.588,4.588,0,0,1,8.25,9.167Zm0-7.333A2.75,2.75,0,1,0,11,4.584,2.753,2.753,0,0,0,8.25,1.833Zm6.416,7.224a.917.917,0,0,1-.227-1.805,2.75,2.75,0,0,0,0-5.328A.917.917,0,1,1,14.894.148a4.583,4.583,0,0,1,0,8.88A.9.9,0,0,1,14.666,9.057Z" fill="#3f305e"/>
    </clipPath>
  </defs>
  <g id="Left_Icon" data-name="Left Icon" transform="translate(0 -1.833)">
    <g id="Group_13" data-name="Group 13" transform="translate(0 1.833)">
      <path id="Combined_Shape-2" data-name="Combined Shape" d="M21.084,18.333a.918.918,0,0,1-.917-.917V15.584A2.749,2.749,0,0,0,18.1,12.924a.917.917,0,1,1,.459-1.775A4.584,4.584,0,0,1,22,15.583v1.833A.918.918,0,0,1,21.084,18.333Zm-5.5,0a.918.918,0,0,1-.917-.917V15.583a2.753,2.753,0,0,0-2.751-2.75H4.584a2.753,2.753,0,0,0-2.751,2.75v1.833a.917.917,0,0,1-1.833,0V15.583A4.589,4.589,0,0,1,4.584,11h7.333A4.589,4.589,0,0,1,16.5,15.583v1.833A.918.918,0,0,1,15.583,18.333ZM8.25,9.167a4.583,4.583,0,1,1,4.584-4.583A4.588,4.588,0,0,1,8.25,9.167Zm0-7.333A2.75,2.75,0,1,0,11,4.584,2.753,2.753,0,0,0,8.25,1.833Zm6.416,7.224a.917.917,0,0,1-.227-1.805,2.75,2.75,0,0,0,0-5.328A.917.917,0,1,1,14.894.148a4.583,4.583,0,0,1,0,8.88A.9.9,0,0,1,14.666,9.057Z" fill="#3f305e"/>
      <g id="Mask_Group_13" data-name="Mask Group 13" clip-path="url(#clip-path)">
        <rect id="_Icon_Color" data-name="↳ Icon Color" width="22" height="22" transform="translate(0 -1.833)" fill="#3f305e"/>
      </g>
    </g>
  </g>
</svg>
