<svg width="12" height="10" viewBox="0 0 12 10" fill="none" xmlns="http://www.w3.org/2000/svg">
<path d="M9.78066 5.32149L11 4.06628" stroke="white" stroke-width="0.7" stroke-linecap="round" stroke-linejoin="round"/>
<path d="M2.21776 2.71662C2.21784 2.26137 2.39356 1.82479 2.70627 1.50288C3.01899 1.18097 3.44309 1.00008 3.88534 1L8.11172 1C8.55399 1 8.97814 1.18086 9.29088 1.50279C9.60361 1.82472 9.7793 2.26134 9.7793 2.71662V5.3216L8.56026 4.06765" stroke="white" stroke-width="0.7" stroke-linecap="round" stroke-linejoin="round"/>
<path d="M2.2207 4.40723L1.00136 5.66243" stroke="white" stroke-width="0.7" stroke-linecap="round" stroke-linejoin="round"/>
<path d="M3.43711 5.66309L2.21776 4.4082V7.06789C2.21784 7.52314 2.39356 7.95972 2.70627 8.28163C3.01899 8.60354 3.44309 8.78443 3.88534 8.78451H8.11172C8.33071 8.78451 8.54756 8.74011 8.74988 8.65384C8.9522 8.56757 9.13603 8.44113 9.29088 8.28172C9.44572 8.12232 9.56856 7.93308 9.65236 7.72481C9.73616 7.51654 9.7793 7.29332 9.7793 7.06789" stroke="white" stroke-width="0.7" stroke-linecap="round" stroke-linejoin="round"/>
</svg>
