<svg xmlns="http://www.w3.org/2000/svg" width="23.281" height="23.281" viewBox="0 0 23.281 23.281">
  <g id="icon-settings" transform="translate(0.65 0.65)">
    <circle id="ellipse" cx="4.087" cy="4.087" r="4.087" transform="translate(6.903 6.903)" fill="none" stroke="#3f305e" stroke-linecap="round" stroke-linejoin="round" stroke-width="1.3"/>
    <path id="path" d="M307.12,768.688v-1.911a.866.866,0,0,0-.866-.866h-1.027a.872.872,0,0,1-.843-.606,8.538,8.538,0,0,0-.993-2.177.852.852,0,0,1,.129-1.056h0a.867.867,0,0,0,0-1.225l-.506-.505a.865.865,0,0,0-1.225,0h0a.851.851,0,0,1-1.055.128,8.511,8.511,0,0,0-2.178-.992.872.872,0,0,1-.606-.844v-1.027a.866.866,0,0,0-.865-.866h-1.912a.866.866,0,0,0-.865.866v1.027a.87.87,0,0,1-.606.843,8.55,8.55,0,0,0-2.178.993.851.851,0,0,1-1.055-.128h0a.865.865,0,0,0-1.225,0l-.506.505a.867.867,0,0,0,0,1.225h0a.852.852,0,0,1,.129,1.056,8.538,8.538,0,0,0-.993,2.177.872.872,0,0,1-.843.606h-1.027a.866.866,0,0,0-.866.866v1.911a.866.866,0,0,0,.866.866h1.027a.871.871,0,0,1,.843.606,8.555,8.555,0,0,0,.993,2.177.852.852,0,0,1-.129,1.056h0a.866.866,0,0,0,0,1.224l.506.506a.866.866,0,0,0,1.225,0h0a.851.851,0,0,1,1.055-.129,8.548,8.548,0,0,0,2.178.993.872.872,0,0,1,.606.843v1.027a.865.865,0,0,0,.865.866h1.912a.865.865,0,0,0,.865-.866V776.83a.872.872,0,0,1,.606-.843,8.547,8.547,0,0,0,2.178-.993.851.851,0,0,1,1.055.129h0a.867.867,0,0,0,1.225,0l.506-.506a.866.866,0,0,0,0-1.224h0a.852.852,0,0,1-.129-1.056,8.555,8.555,0,0,0,.993-2.177.871.871,0,0,1,.843-.606h1.027A.866.866,0,0,0,307.12,768.688Z" transform="translate(-285.139 -756.742)" fill="none" stroke="#3f305e" stroke-linecap="round" stroke-linejoin="round" stroke-width="1.3"/>
  </g>
</svg>
