<svg xmlns="http://www.w3.org/2000/svg" width="27.302" height="22.577" viewBox="0 0 27.302 22.577">
  <path id="Path_1001" d="M23.364,44.308H3.938A3.942,3.942,0,0,0,0,48.246v14.7a3.942,3.942,0,0,0,3.938,3.938H23.364A3.942,3.942,0,0,0,27.3,62.947h0v-14.7h0A3.942,3.942,0,0,0,23.364,44.308Zm0,21H3.938a2.365,2.365,0,0,1-2.363-2.363v-14.7a2.365,2.365,0,0,1,2.363-2.363H23.364a2.365,2.365,0,0,1,2.363,2.363v3.413H19.951a3.938,3.938,0,1,0,0,7.876h5.775v3.413A2.365,2.365,0,0,1,23.364,65.309Zm2.363-7.351H19.951a2.363,2.363,0,0,1,0-4.725h5.775Z" transform="translate(0 -44.308)" fill="#3f305e"/>
</svg>
