<svg width="25" height="21" viewBox="0 0 25 21" fill="none" xmlns="http://www.w3.org/2000/svg">
<path d="M21.3956 0.211914H3.60623C2.65009 0.212884 1.7334 0.593136 1.05731 1.26922C0.381222 1.94531 0.00096971 2.86201 0 3.81814L0 17.2797C0.00096971 18.2358 0.381222 19.1525 1.05731 19.8286C1.7334 20.5047 2.65009 20.8849 3.60623 20.8859H21.3956C22.3513 20.8845 23.2673 20.5041 23.943 19.8283C24.6187 19.1524 24.9988 18.2363 25 17.2806V3.81906C24.9993 2.86308 24.6194 1.94643 23.9437 1.2702C23.2679 0.593962 22.3516 0.213369 21.3956 0.211914ZM21.3956 19.4427H3.60623C3.03247 19.4422 2.48235 19.2141 2.07664 18.8084C1.67093 18.4026 1.44279 17.8525 1.44231 17.2788V3.81723C1.44279 3.24347 1.67093 2.69335 2.07664 2.28764C2.48235 1.88193 3.03247 1.65379 3.60623 1.65331H21.3956C21.9694 1.65379 22.5195 1.88193 22.9252 2.28764C23.3309 2.69335 23.559 3.24347 23.5595 3.81723V6.94269H18.2701C17.3137 6.94269 16.3965 7.32263 15.7202 7.99892C15.0439 8.67522 14.6639 9.59248 14.6639 10.5489C14.6639 11.5053 15.0439 12.4226 15.7202 13.0989C16.3965 13.7752 17.3137 14.1551 18.2701 14.1551H23.5586V17.2806C23.5579 17.854 23.3298 18.4038 22.9243 18.8093C22.5188 19.2148 21.969 19.442 21.3956 19.4427ZM23.5595 12.711H18.2701C17.7041 12.6994 17.1651 12.4663 16.7689 12.0618C16.3727 11.6574 16.1507 11.1137 16.1507 10.5475C16.1507 9.98134 16.3727 9.43769 16.7689 9.03323C17.1651 8.62877 17.7041 8.39572 18.2701 8.38408H23.5586L23.5595 12.711Z" fill="#06283D"/>
</svg>
